<svg width="98" height="98" viewBox="0 0 98 98" fill="none" xmlns="http://www.w3.org/2000/svg">
<path d="M48.7708 0C21.8361 0 0 21.8361 0 48.7708C0 75.7055 21.8361 97.5416 48.7708 97.5416C75.7055 97.5416 97.5416 75.7055 97.5416 48.7708C97.5416 21.8361 75.7055 0 48.7708 0ZM52.6198 74.9642V83.6953H44.2331V75.5646C38.4992 75.3086 32.9375 73.7681 29.6843 71.8877L32.2488 61.8721C35.8463 63.8408 40.8915 65.6373 46.4575 65.6373C51.335 65.6373 54.672 63.7569 54.672 60.3316C54.672 57.0785 51.9353 55.0259 45.6012 52.8851C36.4419 49.8041 30.1959 45.5225 30.1959 37.2199C30.1959 29.6895 35.5016 23.7831 44.661 21.9875V13.8569H53.0477V21.3873C58.7816 21.6433 62.6351 22.844 65.4597 24.2123L62.979 33.8835C60.7542 32.9433 56.817 30.9747 50.6552 30.9747C45.0934 30.9747 43.2926 33.3715 43.2926 35.7639C43.2926 38.5889 46.2897 40.3854 53.564 43.1266C63.7473 46.7196 67.8563 51.4251 67.8563 59.1319C67.8519 66.7462 62.4623 73.2524 52.6194 74.9654L52.6198 74.9642Z" fill="#FCBF49"/>
</svg>
