<svg width="400" height="240" viewBox="0 0 400 240" fill="none" xmlns="http://www.w3.org/2000/svg">
<rect width="400" height="240" rx="8" fill="#003049"/>
<path d="M199.813 40.4453C172.878 40.4453 151.042 62.2814 151.042 89.2161C151.042 116.151 172.878 137.987 199.813 137.987C226.747 137.987 248.584 116.151 248.584 89.2161C248.584 62.2814 226.747 40.4453 199.813 40.4453ZM203.662 115.41V124.141H195.275V116.01C189.541 115.754 183.979 114.213 180.726 112.333L183.291 102.317C186.888 104.286 191.934 106.083 197.499 106.083C202.377 106.083 205.714 104.202 205.714 100.777C205.714 97.5238 202.977 95.4712 196.643 93.3305C187.484 90.2494 181.238 85.9678 181.238 77.6653C181.238 70.1348 186.544 64.2284 195.703 62.4329V54.3022H204.09V61.8326C209.824 62.0886 213.677 63.2893 216.502 64.6576L214.021 74.3288C211.796 73.3886 207.859 71.42 201.697 71.42C196.135 71.42 194.335 73.8168 194.335 76.2093C194.335 79.0343 197.332 80.8307 204.606 83.5719C214.789 87.1649 218.898 91.8704 218.898 99.5772C218.894 107.191 213.504 113.698 203.661 115.411L203.662 115.41Z" fill="white"/>
<path d="M84.9023 194V176.938H90.1758C91.957 176.938 93.3086 177.336 94.2305 178.133C95.1602 178.922 95.625 180.082 95.625 181.613C95.625 182.48 95.4336 183.227 95.0508 183.852C94.668 184.477 94.1445 184.934 93.4805 185.223C94.2461 185.441 94.8359 185.883 95.25 186.547C95.6641 187.203 95.8711 188.016 95.8711 188.984C95.8711 190.641 95.4141 191.891 94.5 192.734C93.5938 193.578 92.2773 194 90.5508 194H84.9023ZM88.3477 186.582V191.141H90.5508C91.168 191.141 91.6367 190.949 91.957 190.566C92.2773 190.184 92.4375 189.641 92.4375 188.938C92.4375 187.406 91.8828 186.621 90.7734 186.582H88.3477ZM88.3477 184.074H90.1406C91.4922 184.074 92.168 183.375 92.168 181.977C92.168 181.203 92.0117 180.648 91.6992 180.312C91.3867 179.977 90.8789 179.809 90.1758 179.809H88.3477V184.074ZM107.191 186.617H101.824V191.141H108.176V194H98.3789V176.938H108.152V179.809H101.824V183.84H107.191V186.617ZM122.098 194H118.652L113.613 182.809V194H110.168V176.938H113.613L118.664 188.141V176.938H122.098V194ZM133.676 186.617H128.309V191.141H134.66V194H124.863V176.938H134.637V179.809H128.309V183.84H133.676V186.617ZM145.453 187.039H140.098V194H136.652V176.938H146.098V179.809H140.098V184.18H145.453V187.039ZM151.664 194H148.219V176.938H151.664V194ZM165.258 179.809H161.039V194H157.582V179.809H153.434V176.938H165.258V179.809ZM174.258 189.523C174.258 188.828 174.078 188.305 173.719 187.953C173.367 187.594 172.723 187.223 171.785 186.84C170.074 186.191 168.844 185.434 168.094 184.566C167.344 183.691 166.969 182.66 166.969 181.473C166.969 180.035 167.477 178.883 168.492 178.016C169.516 177.141 170.812 176.703 172.383 176.703C173.43 176.703 174.363 176.926 175.184 177.371C176.004 177.809 176.633 178.43 177.07 179.234C177.516 180.039 177.738 180.953 177.738 181.977H174.305C174.305 181.18 174.133 180.574 173.789 180.16C173.453 179.738 172.965 179.527 172.324 179.527C171.723 179.527 171.254 179.707 170.918 180.066C170.582 180.418 170.414 180.895 170.414 181.496C170.414 181.965 170.602 182.391 170.977 182.773C171.352 183.148 172.016 183.539 172.969 183.945C174.633 184.547 175.84 185.285 176.59 186.16C177.348 187.035 177.727 188.148 177.727 189.5C177.727 190.984 177.254 192.145 176.309 192.98C175.363 193.816 174.078 194.234 172.453 194.234C171.352 194.234 170.348 194.008 169.441 193.555C168.535 193.102 167.824 192.453 167.309 191.609C166.801 190.766 166.547 189.77 166.547 188.621H170.004C170.004 189.605 170.195 190.32 170.578 190.766C170.961 191.211 171.586 191.434 172.453 191.434C173.656 191.434 174.258 190.797 174.258 189.523ZM197.109 188.316C197.023 190.262 196.477 191.734 195.469 192.734C194.461 193.734 193.039 194.234 191.203 194.234C189.273 194.234 187.793 193.602 186.762 192.336C185.738 191.062 185.227 189.25 185.227 186.898V184.027C185.227 181.684 185.758 179.879 186.82 178.613C187.883 177.34 189.359 176.703 191.25 176.703C193.109 176.703 194.52 177.223 195.48 178.262C196.449 179.301 197 180.793 197.133 182.738H193.676C193.645 181.535 193.457 180.707 193.113 180.254C192.777 179.793 192.156 179.562 191.25 179.562C190.328 179.562 189.676 179.887 189.293 180.535C188.91 181.176 188.707 182.234 188.684 183.711V186.934C188.684 188.629 188.871 189.793 189.246 190.426C189.629 191.059 190.281 191.375 191.203 191.375C192.109 191.375 192.734 191.156 193.078 190.719C193.422 190.273 193.617 189.473 193.664 188.316H197.109ZM207.375 190.508H202.676L201.762 194H198.117L203.449 176.938H206.602L211.969 194H208.289L207.375 190.508ZM203.426 187.637H206.613L205.02 181.555L203.426 187.637ZM217.02 191.141H223.066V194H213.574V176.938H217.02V191.141ZM235.875 188.316C235.789 190.262 235.242 191.734 234.234 192.734C233.227 193.734 231.805 194.234 229.969 194.234C228.039 194.234 226.559 193.602 225.527 192.336C224.504 191.062 223.992 189.25 223.992 186.898V184.027C223.992 181.684 224.523 179.879 225.586 178.613C226.648 177.34 228.125 176.703 230.016 176.703C231.875 176.703 233.285 177.223 234.246 178.262C235.215 179.301 235.766 180.793 235.898 182.738H232.441C232.41 181.535 232.223 180.707 231.879 180.254C231.543 179.793 230.922 179.562 230.016 179.562C229.094 179.562 228.441 179.887 228.059 180.535C227.676 181.176 227.473 182.234 227.449 183.711V186.934C227.449 188.629 227.637 189.793 228.012 190.426C228.395 191.059 229.047 191.375 229.969 191.375C230.875 191.375 231.5 191.156 231.844 190.719C232.188 190.273 232.383 189.473 232.43 188.316H235.875ZM249.094 176.938V188.75C249.078 190.523 248.59 191.883 247.629 192.828C246.668 193.766 245.289 194.234 243.492 194.234C241.664 194.234 240.266 193.758 239.297 192.805C238.336 191.852 237.855 190.473 237.855 188.668V176.938H241.324V188.68C241.324 189.648 241.48 190.34 241.793 190.754C242.105 191.168 242.672 191.375 243.492 191.375C244.312 191.375 244.875 191.172 245.18 190.766C245.484 190.352 245.641 189.676 245.648 188.738V176.938H249.094ZM255.152 191.141H261.199V194H251.707V176.938H255.152V191.141ZM271.57 190.508H266.871L265.957 194H262.312L267.645 176.938H270.797L276.164 194H272.484L271.57 190.508ZM267.621 187.637H270.809L269.215 181.555L267.621 187.637ZM287.414 179.809H283.195V194H279.738V179.809H275.59V176.938H287.414V179.809ZM301.078 187.004C301.078 189.293 300.535 191.07 299.449 192.336C298.371 193.602 296.871 194.234 294.949 194.234C293.035 194.234 291.531 193.609 290.438 192.359C289.344 191.102 288.789 189.344 288.773 187.086V184.168C288.773 181.824 289.316 179.996 290.402 178.684C291.488 177.363 292.996 176.703 294.926 176.703C296.824 176.703 298.32 177.352 299.414 178.648C300.508 179.938 301.062 181.75 301.078 184.086V187.004ZM297.621 184.145C297.621 182.605 297.402 181.461 296.965 180.711C296.527 179.961 295.848 179.586 294.926 179.586C294.012 179.586 293.336 179.949 292.898 180.676C292.461 181.395 292.234 182.492 292.219 183.969V187.004C292.219 188.496 292.441 189.598 292.887 190.309C293.332 191.012 294.02 191.363 294.949 191.363C295.848 191.363 296.516 191.02 296.953 190.332C297.391 189.637 297.613 188.562 297.621 187.109V184.145ZM308.719 187.766H307.008V194H303.562V176.938H309.059C310.785 176.938 312.117 177.387 313.055 178.285C314 179.176 314.473 180.445 314.473 182.094C314.473 184.359 313.648 185.945 312 186.852L314.988 193.836V194H311.285L308.719 187.766ZM307.008 184.895H308.965C309.652 184.895 310.168 184.668 310.512 184.215C310.855 183.754 311.027 183.141 311.027 182.375C311.027 180.664 310.359 179.809 309.023 179.809H307.008V184.895Z" fill="white"/>
</svg>