<svg viewBox="0 0 160 161" fill="none" xmlns="http://www.w3.org/2000/svg">
    <path d="M158.866 160.661C158.564 160.661 158.299 160.548 158.072 160.321L0.340184 1.92476C-0.113395 1.47188 -0.113395 0.754809 0.340184 0.339664C0.793763 -0.113221 1.51193 -0.113221 1.92771 0.339664L159.66 158.736C160.113 159.189 160.113 159.906 159.66 160.321C159.471 160.548 159.168 160.661 158.866 160.661Z" fill="#363031"/>
    <path d="M1.88981 160.66C1.58742 160.66 1.32283 160.547 1.09604 160.321C0.642465 159.868 0.642465 159.151 1.09604 158.735L158.072 1.09357C158.526 0.640685 159.244 0.640685 159.66 1.09357C160.113 1.54646 160.113 2.26352 159.66 2.67867L2.68357 160.321C2.45678 160.547 2.19219 160.66 1.88981 160.66Z" fill="#363031"/>
    <path d="M18.0674 81.7454L24.6443 83.7457C24.1907 85.595 23.5104 87.1423 22.5654 88.3878C21.6205 89.6332 20.4487 90.5767 19.0124 91.1806C17.5761 91.7844 15.7995 92.1241 13.6072 92.1241C10.9614 92.1241 8.80686 91.7467 7.10594 90.9541C5.44282 90.1993 3.96868 88.8406 2.75914 86.9159C1.5496 84.9911 0.944824 82.5002 0.944824 79.481C0.944824 75.4428 2.00318 72.3858 4.15768 70.1969C6.31218 68.0456 9.33603 66.9512 13.2671 66.9512C16.3287 66.9512 18.7478 67.555 20.4865 68.8005C22.2252 70.0459 23.5482 71.9329 24.3797 74.4993L17.7272 75.9711C17.5005 75.2163 17.2359 74.688 17.0091 74.3483C16.5933 73.7822 16.0641 73.3293 15.4594 73.0274C14.8546 72.7255 14.1742 72.5745 13.4182 72.5745C11.7173 72.5745 10.3944 73.2538 9.48723 74.6125C8.80686 75.6315 8.46668 77.2166 8.46668 79.4055C8.46668 82.0851 8.88246 83.9344 9.71402 84.9534C10.5456 85.9346 11.6795 86.463 13.1537 86.463C14.59 86.463 15.6861 86.0478 16.4043 85.2553C17.1981 84.4627 17.7272 83.2928 18.0674 81.7454Z" fill="#363031"/>
    <path d="M150.626 87.7087H142.084L140.912 91.7092H133.239L142.386 67.4043H150.588L159.735 91.7092H151.873L150.626 87.7087ZM149.076 82.425L146.393 73.6692L143.747 82.425H149.076Z" fill="#363031"/>
    <path d="M97.0282 35.5888C99.4472 33.1356 98.4645 29.9654 98.4645 29.9654L95.0626 19.1717C95.1382 18.832 95.5162 18.1904 95.743 17.9262C95.743 17.9262 97.8975 6.75505 97.7841 5.84928C97.6707 4.90577 96.2344 5.5851 96.2344 5.5851L88.7125 9.35914L79.7543 4L70.9852 9.35914C70.9096 9.62333 63.2743 3.54711 63.0097 6.26443L66.147 18.681L62.5183 29.8522C61.0442 33.2489 64.2193 32.0412 65.6178 32.2676L65.5044 32.9469L65.9202 34.3433C63.9925 38.5325 64.9752 40.6837 64.9752 40.6837C73.1774 58.2708 98.5401 35.4001 97.0282 35.5888ZM80.5103 25.6253C80.5103 25.6253 79.263 31.2864 76.1257 32.6073C76.1257 32.6073 72.6861 34.7585 66.4494 33.1734C66.4494 32.645 66.4494 32.1166 66.4494 31.5883C66.3738 30.0032 64.3705 30.8712 63.4633 30.6448L67.4321 19.5491H80.5103V25.6253ZM67.2431 17.6998L64.9752 7.81179L71.2119 11.2839L79.7543 5.9625L89.0149 11.3216L96.31 7.32116L94.3445 17.6998H67.2431Z" fill="#363031"/>
    <path d="M72.811 26.4579C73.7114 25.5589 73.7114 24.1013 72.811 23.2022C71.9106 22.3032 70.4507 22.3032 69.5503 23.2022C68.6499 24.1013 68.6499 25.5589 69.5503 26.4579C70.4507 27.357 71.9106 27.357 72.811 26.4579Z" fill="#363031"/>
    <path d="M73.5932 112.316H85.802L83.0805 124.167L93.6263 122.771L74.1602 158.02L80.6615 132.923L67.1675 135.527L73.5932 112.316Z" fill="#363031"/>
</svg>