<svg viewBox="0 0 37 46" fill="none" xmlns="http://www.w3.org/2000/svg">
    <path d="M26.1832 42.1627C21.9511 46.4053 14.9976 46.4454 10.7655 42.2028L18.4943 34.4549L26.1832 42.1627Z" fill="#D62828"/>
    <path d="M10.7914 42.2288L18.5236 34.4775L26.1866 42.1594C21.9544 46.4019 15.0235 46.4714 10.7914 42.2288Z" fill="#F77F00"/>
    <path d="M25.106 43.2569C21.4576 46.9143 15.5424 46.9143 11.894 43.2569C11.3103 42.6718 11.3103 41.723 11.894 41.1378L17.2739 35.7446C17.9511 35.0658 19.0489 35.0658 19.7261 35.7446L25.106 41.1378C25.6897 41.723 25.6897 42.6718 25.106 43.2569Z" fill="#FCBF49"/>
    <path d="M18.4686 34.4841L10.8057 26.8022L18.4686 19.1203L26.1316 26.8022L18.4686 34.4841Z" fill="#D62828"/>
    <path d="M18.5 34.5155L17.443 33.4559C13.7947 29.7985 13.7947 23.8687 17.443 20.2113C18.0268 19.6261 18.9732 19.6261 19.557 20.2113L26.163 26.8336L18.5 34.5155Z" fill="#F77F00"/>
    <path d="M26.163 42.1974L18.5 34.5155L26.163 26.8336L33.8259 34.5155L26.163 42.1974Z" fill="#D62828"/>
    <path d="M18.5 19.1517L10.837 11.4699L18.5 3.788L26.163 11.4699L18.5 19.1517Z" fill="#D62828"/>
    <path d="M10.8371 26.8336L3.1741 19.1518L10.837 11.4699L18.5 19.1517L10.8371 26.8336Z" fill="#D62828"/>
    <path d="M10.8371 42.1974L3.1741 34.5155L10.8371 26.8336L18.5 34.5155L10.8371 42.1974Z" fill="#D62828"/>
    <path d="M3.1741 34.5155C-1.05803 30.2729 -1.05803 23.3943 3.1741 19.1518L10.8371 26.8336L3.1741 34.5155Z" fill="#D62828"/>
    <path d="M10.8371 42.1974L9.72363 41.0812C6.10642 37.4551 6.10642 31.5759 9.72363 27.9498C10.3386 27.3334 11.3355 27.3334 11.9505 27.9498L18.5 34.5155L10.8371 42.1974Z" fill="#F77F00"/>
    <path d="M26.163 42.1974L18.5 34.5155L26.163 26.8336C30.3951 31.0762 30.3951 37.9548 26.163 42.1974Z" fill="#F77F00"/>
    <path d="M33.8259 34.5155L26.163 26.8336L33.8259 19.1518C38.058 23.3943 38.058 30.2729 33.8259 34.5155Z" fill="#D62828"/>
    <path d="M26.163 26.8336L18.5 19.1517L26.163 11.4699C30.3951 15.7125 30.3951 22.591 26.163 26.8336Z" fill="#D62828"/>
    <path d="M14.7208 7.68172L14.9033 7.48182C16.7946 5.41041 16.7992 2.23535 14.9139 0.158459L14.7701 0L18.5769 3.86555L14.7208 7.68172Z" fill="#D62828"/>
</svg>