<svg xmlns="http://www.w3.org/2000/svg" width="178.691" height="195.126" viewBox="0 0 178.691 195.126">
  <path id="Path_3" data-name="Path 3" d="M89.26,4.655l78.033,78.033a39.473,39.473,0,0,1,0,55.494l-50.2,50.2a39.473,39.473,0,0,1-55.494,0l-50.2-50.2a39.473,39.473,0,0,1,0-55.494Z" transform="translate(0 -4.655)" fill="#fbbe4a"/>
  <path id="Path_4" data-name="Path 4" d="M56.836,101.464c-7-1.366-13.66-2.561-20.661-3.927q20.49-40.212,40.639-80.082c.171,0,.342,0,.342.171C73.4,39.14,69.471,60.484,65.715,82.17c7.172,1.024,14.343,2.049,21.685,3.074-15.88,30.394-31.93,60.617-47.81,91.01a.167.167,0,0,1-.171-.171c5.806-24.759,11.611-49.689,17.417-74.618" transform="translate(25.594 4.401)" fill="#fff"/>
</svg>
