<svg width="400" height="240" viewBox="0 0 400 240" fill="none" xmlns="http://www.w3.org/2000/svg">
<rect width="400" height="240" rx="8" fill="black"/>
<path d="M185.235 141.054C184.992 141.054 184.75 141 184.528 140.887C183.86 140.553 183.525 139.792 183.709 139.065L194.296 98.2537H180.495C179.881 98.2537 179.325 97.9026 179.066 97.3635C178.807 96.8076 178.882 96.1555 179.271 95.6916L218.878 46.5379C219.342 45.9611 220.161 45.7772 220.83 46.1116C221.499 46.446 221.833 47.2066 221.649 47.9339L211.062 88.7448H224.863C225.477 88.7448 226.033 89.0959 226.292 89.635C226.551 90.1909 226.476 90.843 226.087 91.3069L186.464 140.461C186.167 140.849 185.703 141.054 185.24 141.054H185.235Z" fill="white"/>
<path d="M88.0508 187.039H82.6953V194H79.25V176.938H88.6953V179.809H82.6953V184.18H88.0508V187.039ZM94.1094 191.141H100.156V194H90.6641V176.938H94.1094V191.141ZM110.527 190.508H105.828L104.914 194H101.27L106.602 176.938H109.754L115.121 194H111.441L110.527 190.508ZM106.578 187.637H109.766L108.172 181.555L106.578 187.637ZM123.934 189.523C123.934 188.828 123.754 188.305 123.395 187.953C123.043 187.594 122.398 187.223 121.461 186.84C119.75 186.191 118.52 185.434 117.77 184.566C117.02 183.691 116.645 182.66 116.645 181.473C116.645 180.035 117.152 178.883 118.168 178.016C119.191 177.141 120.488 176.703 122.059 176.703C123.105 176.703 124.039 176.926 124.859 177.371C125.68 177.809 126.309 178.43 126.746 179.234C127.191 180.039 127.414 180.953 127.414 181.977H123.98C123.98 181.18 123.809 180.574 123.465 180.16C123.129 179.738 122.641 179.527 122 179.527C121.398 179.527 120.93 179.707 120.594 180.066C120.258 180.418 120.09 180.895 120.09 181.496C120.09 181.965 120.277 182.391 120.652 182.773C121.027 183.148 121.691 183.539 122.645 183.945C124.309 184.547 125.516 185.285 126.266 186.16C127.023 187.035 127.402 188.148 127.402 189.5C127.402 190.984 126.93 192.145 125.984 192.98C125.039 193.816 123.754 194.234 122.129 194.234C121.027 194.234 120.023 194.008 119.117 193.555C118.211 193.102 117.5 192.453 116.984 191.609C116.477 190.766 116.223 189.77 116.223 188.621H119.68C119.68 189.605 119.871 190.32 120.254 190.766C120.637 191.211 121.262 191.434 122.129 191.434C123.332 191.434 123.934 190.797 123.934 189.523ZM141.652 194H138.219V186.699H133.133V194H129.688V176.938H133.133V183.84H138.219V176.938H141.652V194ZM155.762 188.07H150.031V185.305H155.762V188.07ZM164.246 187.062C164.246 185.312 164.449 183.633 164.855 182.023C165.27 180.414 165.883 178.977 166.695 177.711C167.516 176.438 168.391 175.559 169.32 175.074L169.941 176.902C169.059 177.73 168.359 179.004 167.844 180.723C167.328 182.434 167.059 184.414 167.035 186.664V187.367C167.035 189.711 167.289 191.773 167.797 193.555C168.312 195.328 169.027 196.652 169.941 197.527L169.32 199.332C168.398 198.848 167.531 197.984 166.719 196.742C165.914 195.5 165.305 194.086 164.891 192.5C164.477 190.914 164.262 189.262 164.246 187.543V187.062ZM183.535 188.316C183.449 190.262 182.902 191.734 181.895 192.734C180.887 193.734 179.465 194.234 177.629 194.234C175.699 194.234 174.219 193.602 173.188 192.336C172.164 191.062 171.652 189.25 171.652 186.898V184.027C171.652 181.684 172.184 179.879 173.246 178.613C174.309 177.34 175.785 176.703 177.676 176.703C179.535 176.703 180.945 177.223 181.906 178.262C182.875 179.301 183.426 180.793 183.559 182.738H180.102C180.07 181.535 179.883 180.707 179.539 180.254C179.203 179.793 178.582 179.562 177.676 179.562C176.754 179.562 176.102 179.887 175.719 180.535C175.336 181.176 175.133 182.234 175.109 183.711V186.934C175.109 188.629 175.297 189.793 175.672 190.426C176.055 191.059 176.707 191.375 177.629 191.375C178.535 191.375 179.16 191.156 179.504 190.719C179.848 190.273 180.043 189.473 180.09 188.316H183.535ZM197.668 187.004C197.668 189.293 197.125 191.07 196.039 192.336C194.961 193.602 193.461 194.234 191.539 194.234C189.625 194.234 188.121 193.609 187.027 192.359C185.934 191.102 185.379 189.344 185.363 187.086V184.168C185.363 181.824 185.906 179.996 186.992 178.684C188.078 177.363 189.586 176.703 191.516 176.703C193.414 176.703 194.91 177.352 196.004 178.648C197.098 179.938 197.652 181.75 197.668 184.086V187.004ZM194.211 184.145C194.211 182.605 193.992 181.461 193.555 180.711C193.117 179.961 192.438 179.586 191.516 179.586C190.602 179.586 189.926 179.949 189.488 180.676C189.051 181.395 188.824 182.492 188.809 183.969V187.004C188.809 188.496 189.031 189.598 189.477 190.309C189.922 191.012 190.609 191.363 191.539 191.363C192.438 191.363 193.105 191.02 193.543 190.332C193.98 189.637 194.203 188.562 194.211 187.109V184.145ZM204.641 176.938L207.863 189.277L211.074 176.938H215.574V194H212.117V189.383L212.434 182.27L209.023 194H206.68L203.27 182.27L203.586 189.383V194H200.141V176.938H204.641ZM221.949 194H218.504V176.938H221.949V194ZM236.773 194H233.328L228.289 182.809V194H224.844V176.938H228.289L233.34 188.141V176.938H236.773V194ZM251.141 192.066C250.477 192.785 249.66 193.328 248.691 193.695C247.73 194.055 246.676 194.234 245.527 194.234C243.566 194.234 242.043 193.629 240.957 192.418C239.871 191.199 239.312 189.43 239.281 187.109V184.039C239.281 181.688 239.793 179.879 240.816 178.613C241.848 177.34 243.348 176.703 245.316 176.703C247.168 176.703 248.562 177.16 249.5 178.074C250.445 178.988 250.992 180.422 251.141 182.375H247.789C247.695 181.289 247.469 180.551 247.109 180.16C246.75 179.762 246.188 179.562 245.422 179.562C244.492 179.562 243.816 179.902 243.395 180.582C242.973 181.262 242.754 182.344 242.738 183.828V186.922C242.738 188.477 242.969 189.609 243.43 190.32C243.898 191.023 244.664 191.375 245.727 191.375C246.406 191.375 246.957 191.238 247.379 190.965L247.684 190.754V187.625H245.27V185.023H251.141V192.066ZM266.316 189.523C266.316 188.828 266.137 188.305 265.777 187.953C265.426 187.594 264.781 187.223 263.844 186.84C262.133 186.191 260.902 185.434 260.152 184.566C259.402 183.691 259.027 182.66 259.027 181.473C259.027 180.035 259.535 178.883 260.551 178.016C261.574 177.141 262.871 176.703 264.441 176.703C265.488 176.703 266.422 176.926 267.242 177.371C268.062 177.809 268.691 178.43 269.129 179.234C269.574 180.039 269.797 180.953 269.797 181.977H266.363C266.363 181.18 266.191 180.574 265.848 180.16C265.512 179.738 265.023 179.527 264.383 179.527C263.781 179.527 263.312 179.707 262.977 180.066C262.641 180.418 262.473 180.895 262.473 181.496C262.473 181.965 262.66 182.391 263.035 182.773C263.41 183.148 264.074 183.539 265.027 183.945C266.691 184.547 267.898 185.285 268.648 186.16C269.406 187.035 269.785 188.148 269.785 189.5C269.785 190.984 269.312 192.145 268.367 192.98C267.422 193.816 266.137 194.234 264.512 194.234C263.41 194.234 262.406 194.008 261.5 193.555C260.594 193.102 259.883 192.453 259.367 191.609C258.859 190.766 258.605 189.77 258.605 188.621H262.062C262.062 189.605 262.254 190.32 262.637 190.766C263.02 191.211 263.645 191.434 264.512 191.434C265.715 191.434 266.316 190.797 266.316 189.523ZM284.082 187.004C284.082 189.293 283.539 191.07 282.453 192.336C281.375 193.602 279.875 194.234 277.953 194.234C276.039 194.234 274.535 193.609 273.441 192.359C272.348 191.102 271.793 189.344 271.777 187.086V184.168C271.777 181.824 272.32 179.996 273.406 178.684C274.492 177.363 276 176.703 277.93 176.703C279.828 176.703 281.324 177.352 282.418 178.648C283.512 179.938 284.066 181.75 284.082 184.086V187.004ZM280.625 184.145C280.625 182.605 280.406 181.461 279.969 180.711C279.531 179.961 278.852 179.586 277.93 179.586C277.016 179.586 276.34 179.949 275.902 180.676C275.465 181.395 275.238 182.492 275.223 183.969V187.004C275.223 188.496 275.445 189.598 275.891 190.309C276.336 191.012 277.023 191.363 277.953 191.363C278.852 191.363 279.52 191.02 279.957 190.332C280.395 189.637 280.617 188.562 280.625 187.109V184.145ZM298.566 187.004C298.566 189.293 298.023 191.07 296.938 192.336C295.859 193.602 294.359 194.234 292.438 194.234C290.523 194.234 289.02 193.609 287.926 192.359C286.832 191.102 286.277 189.344 286.262 187.086V184.168C286.262 181.824 286.805 179.996 287.891 178.684C288.977 177.363 290.484 176.703 292.414 176.703C294.312 176.703 295.809 177.352 296.902 178.648C297.996 179.938 298.551 181.75 298.566 184.086V187.004ZM295.109 184.145C295.109 182.605 294.891 181.461 294.453 180.711C294.016 179.961 293.336 179.586 292.414 179.586C291.5 179.586 290.824 179.949 290.387 180.676C289.949 181.395 289.723 182.492 289.707 183.969V187.004C289.707 188.496 289.93 189.598 290.375 190.309C290.82 191.012 291.508 191.363 292.438 191.363C293.336 191.363 294.004 191.02 294.441 190.332C294.879 189.637 295.102 188.562 295.109 187.109V184.145ZM312.969 194H309.523L304.484 182.809V194H301.039V176.938H304.484L309.535 188.141V176.938H312.969V194ZM320.879 187.344C320.879 189.164 320.645 190.887 320.176 192.512C319.715 194.137 319.07 195.562 318.242 196.789C317.422 198.016 316.551 198.863 315.629 199.332L315.02 197.527C315.91 196.676 316.613 195.375 317.129 193.625C317.645 191.867 317.91 189.879 317.926 187.66V187.039C317.926 184.766 317.668 182.734 317.152 180.945C316.645 179.148 315.934 177.793 315.02 176.879L315.629 175.074C316.23 175.379 316.844 175.887 317.469 176.598C318.102 177.309 318.672 178.188 319.18 179.234C319.688 180.281 320.098 181.461 320.41 182.773C320.723 184.078 320.879 185.602 320.879 187.344Z" fill="white"/>
</svg>