<svg width="48" height="49" viewBox="0 0 48 49" fill="none" xmlns="http://www.w3.org/2000/svg">
    <path d="M47.6598 49C47.5691 49 47.4897 48.9655 47.4217 48.8964L0.102055 0.587033C-0.0340184 0.448908 -0.0340184 0.230209 0.102055 0.103594C0.238129 -0.0345314 0.453579 -0.0345314 0.578313 0.103594L47.8979 48.413C48.034 48.5511 48.034 48.7698 47.8979 48.8964C47.8412 48.9655 47.7505 49 47.6598 49Z" fill="#5f5456"/>
    <path d="M0.566747 49.0003C0.476031 49.0003 0.396655 48.9657 0.328618 48.8967C0.192544 48.7585 0.192544 48.5398 0.328618 48.4132L47.4215 0.334063C47.5575 0.195937 47.773 0.195937 47.8977 0.334063C48.0338 0.472188 48.0338 0.690887 47.8977 0.817502L0.804876 48.8967C0.736839 48.9657 0.657463 49.0003 0.566747 49.0003Z" fill="#5f5456"/>
    <path d="M5.42047 24.932L7.39354 25.5421C7.25747 26.1061 7.05336 26.578 6.76987 26.9579C6.48638 27.3377 6.13486 27.6255 5.70396 27.8096C5.27306 27.9938 4.74011 28.0974 4.08242 28.0974C3.28865 28.0974 2.6423 27.9823 2.13203 27.7406C1.63309 27.5104 1.19085 27.096 0.827986 26.509C0.465123 25.9219 0.283691 25.1622 0.283691 24.2414C0.283691 23.0098 0.601197 22.0774 1.24755 21.4098C1.8939 20.7537 2.80105 20.4199 3.98036 20.4199C4.89886 20.4199 5.62458 20.6041 6.1462 20.9839C6.66782 21.3638 7.0647 21.9393 7.31417 22.722L5.31842 23.1709C5.25038 22.9407 5.17101 22.7796 5.10297 22.676C4.97823 22.5033 4.81948 22.3652 4.63805 22.2731C4.45662 22.181 4.25251 22.135 4.02572 22.135C3.51544 22.135 3.11856 22.3422 2.84641 22.7565C2.6423 23.0673 2.54025 23.5508 2.54025 24.2184C2.54025 25.0356 2.66498 25.5996 2.91445 25.9104C3.16392 26.2097 3.5041 26.3708 3.94634 26.3708C4.37724 26.3708 4.70609 26.2442 4.92154 26.0025C5.15967 25.7608 5.31842 25.4039 5.42047 24.932Z" fill="#5f5456"/>
    <path d="M45.1878 26.7512H42.6251L42.2736 27.9713H39.9717L42.7158 20.5586H45.1765L47.9207 27.9713H45.562L45.1878 26.7512ZM44.7229 25.1398L43.9178 22.4693L43.1241 25.1398H44.7229Z" fill="#5f5456"/>
    <path d="M29.1085 10.855C29.8343 10.1068 29.5394 9.13989 29.5394 9.13989L28.5189 5.8479C28.5416 5.74431 28.655 5.54863 28.723 5.46806C28.723 5.46806 29.3694 2.06097 29.3353 1.78472C29.3013 1.49695 28.8704 1.70414 28.8704 1.70414L26.6139 2.85519L23.9264 1.2207L21.2956 2.85519C21.273 2.93576 18.9824 1.08258 18.903 1.91133L19.8442 5.69827L18.7556 9.10536C18.3134 10.1413 19.2659 9.77297 19.6854 9.84203L19.6514 10.0492L19.7762 10.4751C19.1978 11.7528 19.4927 12.4089 19.4927 12.4089C21.9533 17.7727 29.5621 10.7974 29.1085 10.855ZM24.1532 7.81619C24.1532 7.81619 23.779 9.54276 22.8378 9.94563C22.8378 9.94563 21.8059 10.6017 19.9349 10.1183C19.9349 9.95714 19.9349 9.79599 19.9349 9.63484C19.9122 9.1514 19.3112 9.41614 19.0391 9.34708L20.2297 5.96301H24.1532V7.81619ZM20.173 5.399L19.4927 2.38326L21.3637 3.44222L23.9264 1.81925L26.7046 3.45373L28.8931 2.23362L28.3034 5.399H20.173Z" fill="#5f5456"/>
    <path d="M21.8433 8.0707C22.1134 7.7965 22.1134 7.35194 21.8433 7.07774C21.5732 6.80354 21.1352 6.80354 20.8651 7.07774C20.595 7.35194 20.595 7.7965 20.8651 8.0707C21.1352 8.3449 21.5732 8.3449 21.8433 8.0707Z" fill="#5f5456"/>
    <path d="M22.0781 34.2559H25.7408L24.9243 37.8701L28.088 37.4443L22.2482 48.195L24.1986 40.5406L20.1504 41.3348L22.0781 34.2559Z" fill="#5f5456"/>
</svg>