<svg width="40" height="40" viewBox="0 0 40 40" fill="none" xmlns="http://www.w3.org/2000/svg">
    <path d="M20 40C31.0457 40 40 31.0457 40 20C40 8.9543 31.0457 0 20 0C8.9543 0 0 8.9543 0 20C0 31.0457 8.9543 40 20 40Z" fill="white"/>
    <path d="M21.5407 17.2737C21.8666 16.9181 22.1333 16.5329 22.4888 16.207C23.5259 15.2292 24.7407 14.7255 26.1926 14.7551C26.9926 14.7551 27.7629 14.8144 28.5037 15.0514C30.2518 15.5551 31.2592 16.7403 31.7333 18.4588C32.0888 19.7329 32.1481 21.0366 32.1777 22.3403C32.1777 25.0959 32.1777 27.8514 32.1777 30.6366C32.1777 30.9033 32.1185 30.9625 31.8518 30.9625C30.4296 30.9625 29.0074 30.9625 27.5851 30.9625C27.3481 30.9625 27.2888 30.8737 27.2888 30.6366C27.2888 27.9996 27.2888 25.3922 27.2888 22.7551C27.2888 22.1033 27.2592 21.4514 27.0518 20.7996C26.7259 19.6144 25.8666 19.0218 24.6222 19.0811C22.9333 19.17 22.0444 19.9996 21.837 21.7181C21.7777 22.1329 21.7481 22.5477 21.7481 22.9626C21.7481 25.5107 21.7481 28.0885 21.7481 30.6366C21.7481 30.9033 21.6889 30.9625 21.4222 30.9625C20 30.9625 18.5481 30.9625 17.1259 30.9625C16.8888 30.9625 16.8296 30.9033 16.8296 30.6663C16.8296 25.5996 16.8296 20.5329 16.8296 15.4663C16.8296 15.2292 16.9185 15.17 17.1555 15.17C18.5185 15.17 19.8814 15.17 21.2444 15.17C21.4814 15.17 21.5703 15.2588 21.5407 15.4959C21.5407 16.0588 21.5407 16.6514 21.5407 17.2737Z" fill="#363031"/>
    <path d="M13.7481 23.0517C13.7481 25.5703 13.7481 28.0591 13.7481 30.5777C13.7481 30.8443 13.6888 30.9332 13.3926 30.9332C11.9703 30.9036 10.5481 30.9332 9.12589 30.9332C8.88885 30.9332 8.82959 30.874 8.82959 30.6369C8.82959 25.5703 8.82959 20.5036 8.82959 15.4369C8.82959 15.2295 8.88885 15.1406 9.09626 15.1406C10.5481 15.1406 11.9703 15.1406 13.4222 15.1406C13.6888 15.1406 13.7481 15.2591 13.7481 15.4962C13.7481 18.0147 13.7481 20.5332 13.7481 23.0517Z" fill="#363031"/>
    <path d="M14.1332 10.1039C14.1332 11.6742 12.8592 12.9483 11.2888 12.9483C9.74804 12.9483 8.44434 11.6742 8.44434 10.1335C8.44434 8.56314 9.71841 7.28906 11.2888 7.28906C12.8592 7.28906 14.1332 8.56314 14.1332 10.1039Z" fill="#363031"/>
</svg>