<svg width="813" height="1451" viewBox="0 0 813 1451" fill="none" xmlns="http://www.w3.org/2000/svg">
  <g opacity="0.15">
  <path d="M735.119 1060.79L735.119 1060.79L712.871 1038.45C712.871 1038.45 712.871 1038.45 712.871 1038.45L712.871 1038.45L713.048 1038.27C712.984 1038.21 712.984 1038.11 713.048 1038.05L735.119 1060.79ZM735.119 1060.79C735.195 1060.87 735.295 1060.91 735.408 1060.91C735.503 1060.91 735.617 1060.88 735.7 1060.79C735.865 1060.62 735.85 1060.37 735.697 1060.21C735.697 1060.21 735.697 1060.21 735.697 1060.21L713.452 1037.87C713.291 1037.7 713.031 1037.72 712.875 1037.87L735.119 1060.79Z" fill="white" stroke="white" stroke-width="0.5"/>
  <path d="M735.119 1037.98L735.119 1037.98L712.98 1060.21C712.809 1060.37 712.822 1060.64 712.978 1060.79C713.054 1060.87 713.153 1060.91 713.266 1060.91C713.38 1060.91 713.479 1060.87 713.555 1060.79L713.555 1060.79L735.694 1038.56C735.864 1038.4 735.852 1038.14 735.7 1037.98C735.538 1037.81 735.275 1037.82 735.119 1037.98Z" fill="white" stroke="white" stroke-width="0.5"/>
  </g>
  <g opacity="0.3">
  <path d="M765.119 1437.79L765.119 1437.79L742.871 1415.45C742.871 1415.45 742.871 1415.45 742.871 1415.45L742.871 1415.45L743.048 1415.27C742.984 1415.21 742.984 1415.11 743.048 1415.05L765.119 1437.79ZM765.119 1437.79C765.195 1437.87 765.295 1437.91 765.408 1437.91C765.503 1437.91 765.617 1437.88 765.7 1437.79C765.865 1437.62 765.85 1437.37 765.697 1437.21C765.697 1437.21 765.697 1437.21 765.697 1437.21L743.452 1414.87C743.291 1414.7 743.031 1414.72 742.875 1414.87L765.119 1437.79Z" fill="white" stroke="white" stroke-width="0.5"/>
  <path d="M765.119 1414.98L765.119 1414.98L742.98 1437.21C742.809 1437.37 742.822 1437.64 742.978 1437.79C743.054 1437.87 743.153 1437.91 743.266 1437.91C743.38 1437.91 743.479 1437.87 743.555 1437.79L743.555 1437.79L765.694 1415.56C765.864 1415.4 765.852 1415.14 765.7 1414.98C765.538 1414.81 765.275 1414.82 765.119 1414.98Z" fill="white" stroke="white" stroke-width="0.5"/>
  </g>
  <g opacity="0.3">
  <path d="M497.119 1449.79L497.119 1449.79L474.871 1427.45C474.871 1427.45 474.871 1427.45 474.871 1427.45L474.871 1427.45L475.048 1427.27C474.984 1427.21 474.984 1427.11 475.048 1427.05L497.119 1449.79ZM497.119 1449.79C497.195 1449.87 497.295 1449.91 497.408 1449.91C497.503 1449.91 497.617 1449.88 497.7 1449.79C497.865 1449.62 497.85 1449.37 497.697 1449.21C497.697 1449.21 497.697 1449.21 497.697 1449.21L475.452 1426.87C475.291 1426.7 475.031 1426.72 474.875 1426.87L497.119 1449.79Z" fill="white" stroke="white" stroke-width="0.5"/>
  <path d="M497.119 1426.98L497.119 1426.98L474.98 1449.21C474.809 1449.37 474.822 1449.64 474.978 1449.79C475.054 1449.87 475.153 1449.91 475.266 1449.91C475.38 1449.91 475.479 1449.87 475.555 1449.79L475.555 1449.79L497.694 1427.56C497.864 1427.4 497.852 1427.14 497.7 1426.98C497.538 1426.81 497.275 1426.82 497.119 1426.98Z" fill="white" stroke="white" stroke-width="0.5"/>
  </g>
  <g opacity="0.3">
  <path d="M301.119 1449.79L301.119 1449.79L278.871 1427.45C278.871 1427.45 278.871 1427.45 278.871 1427.45L278.871 1427.45L279.048 1427.27C278.984 1427.21 278.984 1427.11 279.048 1427.05L301.119 1449.79ZM301.119 1449.79C301.195 1449.87 301.295 1449.91 301.408 1449.91C301.503 1449.91 301.617 1449.88 301.7 1449.79C301.865 1449.62 301.85 1449.37 301.697 1449.21C301.697 1449.21 301.697 1449.21 301.697 1449.21L279.452 1426.87C279.291 1426.7 279.031 1426.72 278.875 1426.87L301.119 1449.79Z" fill="white" stroke="white" stroke-width="0.5"/>
  <path d="M301.119 1426.98L301.119 1426.98L278.98 1449.21C278.809 1449.37 278.822 1449.64 278.978 1449.79C279.054 1449.87 279.153 1449.91 279.266 1449.91C279.38 1449.91 279.479 1449.87 279.555 1449.79L279.555 1449.79L301.694 1427.56C301.864 1427.4 301.852 1427.14 301.7 1426.98C301.538 1426.81 301.275 1426.82 301.119 1426.98Z" fill="white" stroke="white" stroke-width="0.5"/>
  </g>
  <g opacity="0.3">
  <path d="M218.119 1383.79L218.119 1383.79L195.871 1361.45C195.871 1361.45 195.871 1361.45 195.871 1361.45L195.871 1361.45L196.048 1361.27C195.984 1361.21 195.984 1361.11 196.048 1361.05L218.119 1383.79ZM218.119 1383.79C218.195 1383.87 218.295 1383.91 218.408 1383.91C218.503 1383.91 218.617 1383.88 218.7 1383.79C218.865 1383.62 218.85 1383.37 218.697 1383.21C218.697 1383.21 218.697 1383.21 218.697 1383.21L196.452 1360.87C196.291 1360.7 196.031 1360.72 195.875 1360.87L218.119 1383.79Z" fill="white" stroke="white" stroke-width="0.5"/>
  <path d="M218.119 1360.98L218.119 1360.98L195.98 1383.21C195.809 1383.37 195.822 1383.64 195.978 1383.79C196.054 1383.87 196.153 1383.91 196.266 1383.91C196.38 1383.91 196.479 1383.87 196.555 1383.79L196.555 1383.79L218.694 1361.56C218.864 1361.4 218.852 1361.14 218.7 1360.98C218.538 1360.81 218.275 1360.82 218.119 1360.98Z" fill="white" stroke="white" stroke-width="0.5"/>
  </g>
  <g opacity="0.3">
  <path d="M23.1194 1449.79L23.1189 1449.79L0.871342 1427.45C0.871237 1427.45 0.871132 1427.45 0.871028 1427.45L0.870835 1427.45L1.04798 1427.27C0.984006 1427.21 0.984006 1427.11 1.04798 1427.05L23.1194 1449.79ZM23.1194 1449.79C23.1952 1449.87 23.2948 1449.91 23.408 1449.91C23.5027 1449.91 23.6167 1449.88 23.7004 1449.79C23.8647 1449.62 23.8504 1449.37 23.6971 1449.21C23.697 1449.21 23.6968 1449.21 23.6966 1449.21L1.45184 1426.87C1.29101 1426.7 1.03145 1426.72 0.875245 1426.87L23.1194 1449.79Z" fill="white" stroke="white" stroke-width="0.5"/>
  <path d="M23.1192 1426.98L23.1187 1426.98L0.98044 1449.21C0.809149 1449.37 0.822032 1449.64 0.977785 1449.79C1.05353 1449.87 1.15322 1449.91 1.26639 1449.91C1.37955 1449.91 1.47924 1449.87 1.55499 1449.79L1.5555 1449.79L23.6938 1427.56C23.8636 1427.4 23.8524 1427.14 23.7004 1426.98C23.5382 1426.81 23.2752 1426.82 23.1192 1426.98Z" fill="white" stroke="white" stroke-width="0.5"/>
  </g>
  <g opacity="0.3">
  <path d="M634.119 1366.79L634.119 1366.79L611.871 1344.45C611.871 1344.45 611.871 1344.45 611.871 1344.45L611.871 1344.45L612.048 1344.27C611.984 1344.21 611.984 1344.11 612.048 1344.05L634.119 1366.79ZM634.119 1366.79C634.195 1366.87 634.295 1366.91 634.408 1366.91C634.503 1366.91 634.617 1366.88 634.7 1366.79C634.865 1366.62 634.85 1366.37 634.697 1366.21C634.697 1366.21 634.697 1366.21 634.697 1366.21L612.452 1343.87C612.291 1343.7 612.031 1343.72 611.875 1343.87L634.119 1366.79Z" fill="white" stroke="white" stroke-width="0.5"/>
  <path d="M634.119 1343.98L634.119 1343.98L611.98 1366.21C611.809 1366.37 611.822 1366.64 611.978 1366.79C612.054 1366.87 612.153 1366.91 612.266 1366.91C612.38 1366.91 612.479 1366.87 612.555 1366.79L612.555 1366.79L634.694 1344.56C634.864 1344.4 634.852 1344.14 634.7 1343.98C634.538 1343.81 634.275 1343.82 634.119 1343.98Z" fill="white" stroke="white" stroke-width="0.5"/>
  </g>
  <g opacity="0.3">
  <path d="M497.119 1303.79L497.119 1303.79L474.871 1281.45C474.871 1281.45 474.871 1281.45 474.871 1281.45L474.871 1281.45L475.048 1281.27C474.984 1281.21 474.984 1281.11 475.048 1281.05L497.119 1303.79ZM497.119 1303.79C497.195 1303.87 497.295 1303.91 497.408 1303.91C497.503 1303.91 497.617 1303.88 497.7 1303.79C497.865 1303.62 497.85 1303.37 497.697 1303.21C497.697 1303.21 497.697 1303.21 497.697 1303.21L475.452 1280.87C475.291 1280.7 475.031 1280.72 474.875 1280.87L497.119 1303.79Z" fill="white" stroke="white" stroke-width="0.5"/>
  <path d="M497.119 1280.98L497.119 1280.98L474.98 1303.21C474.809 1303.37 474.822 1303.64 474.978 1303.79C475.054 1303.87 475.153 1303.91 475.266 1303.91C475.38 1303.91 475.479 1303.87 475.555 1303.79L475.555 1303.79L497.694 1281.56C497.864 1281.4 497.852 1281.14 497.7 1280.98C497.538 1280.81 497.275 1280.82 497.119 1280.98Z" fill="white" stroke="white" stroke-width="0.5"/>
  </g>
  <g opacity="0.3">
  <path d="M819.119 1190.79L819.119 1190.79L796.871 1168.45C796.871 1168.45 796.871 1168.45 796.871 1168.45L796.871 1168.45L797.048 1168.27C796.984 1168.21 796.984 1168.11 797.048 1168.05L819.119 1190.79ZM819.119 1190.79C819.195 1190.87 819.295 1190.91 819.408 1190.91C819.503 1190.91 819.617 1190.88 819.7 1190.79C819.865 1190.62 819.85 1190.37 819.697 1190.21C819.697 1190.21 819.697 1190.21 819.697 1190.21L797.452 1167.87C797.291 1167.7 797.031 1167.72 796.875 1167.87L819.119 1190.79Z" fill="white" stroke="white" stroke-width="0.5"/>
  <path d="M819.119 1167.98L819.119 1167.98L796.98 1190.21C796.809 1190.37 796.822 1190.64 796.978 1190.79C797.054 1190.87 797.153 1190.91 797.266 1190.91C797.38 1190.91 797.479 1190.87 797.555 1190.79L797.555 1190.79L819.694 1168.56C819.864 1168.4 819.852 1168.14 819.7 1167.98C819.538 1167.81 819.275 1167.82 819.119 1167.98Z" fill="white" stroke="white" stroke-width="0.5"/>
  </g>
  <g opacity="0.3">
  <path d="M712.119 1258.79L712.119 1258.79L689.871 1236.45C689.871 1236.45 689.871 1236.45 689.871 1236.45L689.871 1236.45L690.048 1236.27C689.984 1236.21 689.984 1236.11 690.048 1236.05L712.119 1258.79ZM712.119 1258.79C712.195 1258.87 712.295 1258.91 712.408 1258.91C712.503 1258.91 712.617 1258.88 712.7 1258.79C712.865 1258.62 712.85 1258.37 712.697 1258.21C712.697 1258.21 712.697 1258.21 712.697 1258.21L690.452 1235.87C690.291 1235.7 690.031 1235.72 689.875 1235.87L712.119 1258.79Z" fill="white" stroke="white" stroke-width="0.5"/>
  <path d="M712.119 1235.98L712.119 1235.98L689.98 1258.21C689.809 1258.37 689.822 1258.64 689.978 1258.79C690.054 1258.87 690.153 1258.91 690.266 1258.91C690.38 1258.91 690.479 1258.87 690.555 1258.79L690.555 1258.79L712.694 1236.56C712.864 1236.4 712.852 1236.14 712.7 1235.98C712.538 1235.81 712.275 1235.82 712.119 1235.98Z" fill="white" stroke="white" stroke-width="0.5"/>
  </g>
  <g opacity="0.3">
  <path d="M627.119 1162.79L627.119 1162.79L604.871 1140.45C604.871 1140.45 604.871 1140.45 604.871 1140.45L604.871 1140.45L605.048 1140.27C604.984 1140.21 604.984 1140.11 605.048 1140.05L627.119 1162.79ZM627.119 1162.79C627.195 1162.87 627.295 1162.91 627.408 1162.91C627.503 1162.91 627.617 1162.88 627.7 1162.79C627.865 1162.62 627.85 1162.37 627.697 1162.21C627.697 1162.21 627.697 1162.21 627.697 1162.21L605.452 1139.87C605.291 1139.7 605.031 1139.72 604.875 1139.87L627.119 1162.79Z" fill="white" stroke="white" stroke-width="0.5"/>
  <path d="M627.119 1139.98L627.119 1139.98L604.98 1162.21C604.809 1162.37 604.822 1162.64 604.978 1162.79C605.054 1162.87 605.153 1162.91 605.266 1162.91C605.38 1162.91 605.479 1162.87 605.555 1162.79L605.555 1162.79L627.694 1140.56C627.864 1140.4 627.852 1140.14 627.7 1139.98C627.538 1139.81 627.275 1139.82 627.119 1139.98Z" fill="white" stroke="white" stroke-width="0.5"/>
  </g>
  <g opacity="0.3">
  <path d="M464.119 1133.79L464.119 1133.79L441.871 1111.45C441.871 1111.45 441.871 1111.45 441.871 1111.45L441.871 1111.45L442.048 1111.27C441.984 1111.21 441.984 1111.11 442.048 1111.05L464.119 1133.79ZM464.119 1133.79C464.195 1133.87 464.295 1133.91 464.408 1133.91C464.503 1133.91 464.617 1133.88 464.7 1133.79C464.865 1133.62 464.85 1133.37 464.697 1133.21C464.697 1133.21 464.697 1133.21 464.697 1133.21L442.452 1110.87C442.291 1110.7 442.031 1110.72 441.875 1110.87L464.119 1133.79Z" fill="white" stroke="white" stroke-width="0.5"/>
  <path d="M464.119 1110.98L464.119 1110.98L441.98 1133.21C441.809 1133.37 441.822 1133.64 441.978 1133.79C442.054 1133.87 442.153 1133.91 442.266 1133.91C442.38 1133.91 442.479 1133.87 442.555 1133.79L442.555 1133.79L464.694 1111.56C464.864 1111.4 464.852 1111.14 464.7 1110.98C464.538 1110.81 464.275 1110.82 464.119 1110.98Z" fill="white" stroke="white" stroke-width="0.5"/>
  </g>
  <g opacity="0.15">
  <path d="M520.119 982.79L520.119 982.79L497.871 960.448C497.871 960.448 497.871 960.448 497.871 960.448L497.871 960.448L498.048 960.271C497.984 960.208 497.984 960.106 498.048 960.048L520.119 982.79ZM520.119 982.79C520.195 982.866 520.295 982.911 520.408 982.911C520.503 982.911 520.617 982.878 520.7 982.787C520.865 982.624 520.85 982.367 520.697 982.213C520.697 982.213 520.697 982.213 520.697 982.213L498.452 959.874C498.291 959.704 498.031 959.715 497.875 959.867L520.119 982.79Z" fill="white" stroke="white" stroke-width="0.5"/>
  <path d="M520.119 959.978L520.119 959.979L497.98 982.211C497.809 982.373 497.822 982.636 497.978 982.791C498.054 982.867 498.153 982.912 498.266 982.912C498.38 982.912 498.479 982.867 498.555 982.791L498.555 982.791L520.694 960.558C520.864 960.398 520.852 960.138 520.7 959.982C520.538 959.81 520.275 959.823 520.119 959.978Z" fill="white" stroke="white" stroke-width="0.5"/>
  </g>
  <g opacity="0.15">
  <path d="M657.119 982.79L657.119 982.79L634.871 960.448C634.871 960.448 634.871 960.448 634.871 960.448L634.871 960.448L635.048 960.271C634.984 960.208 634.984 960.106 635.048 960.048L657.119 982.79ZM657.119 982.79C657.195 982.866 657.295 982.911 657.408 982.911C657.503 982.911 657.617 982.878 657.7 982.787C657.865 982.624 657.85 982.367 657.697 982.213C657.697 982.213 657.697 982.213 657.697 982.213L635.452 959.874C635.291 959.704 635.031 959.715 634.875 959.867L657.119 982.79Z" fill="white" stroke="white" stroke-width="0.5"/>
  <path d="M657.119 959.978L657.119 959.979L634.98 982.211C634.809 982.373 634.822 982.636 634.978 982.791C635.054 982.867 635.153 982.912 635.266 982.912C635.38 982.912 635.479 982.867 635.555 982.791L635.555 982.791L657.694 960.558C657.864 960.398 657.852 960.138 657.7 959.982C657.538 959.81 657.275 959.823 657.119 959.978Z" fill="white" stroke="white" stroke-width="0.5"/>
  </g>
  <g opacity="0.15">
  <path d="M424.119 917.79L424.119 917.79L401.871 895.448C401.871 895.448 401.871 895.448 401.871 895.448L401.871 895.448L402.048 895.271C401.984 895.208 401.984 895.106 402.048 895.048L424.119 917.79ZM424.119 917.79C424.195 917.866 424.295 917.911 424.408 917.911C424.503 917.911 424.617 917.878 424.7 917.787C424.865 917.624 424.85 917.367 424.697 917.213C424.697 917.213 424.697 917.213 424.697 917.213L402.452 894.874C402.291 894.704 402.031 894.715 401.875 894.867L424.119 917.79Z" fill="white" stroke="white" stroke-width="0.5"/>
  <path d="M424.119 894.978L424.119 894.979L401.98 917.211C401.809 917.373 401.822 917.636 401.978 917.791C402.054 917.867 402.153 917.912 402.266 917.912C402.38 917.912 402.479 917.867 402.555 917.791L402.555 917.791L424.694 895.558C424.864 895.398 424.852 895.138 424.7 894.982C424.538 894.81 424.275 894.823 424.119 894.978Z" fill="white" stroke="white" stroke-width="0.5"/>
  </g>
  <g opacity="0.3">
  <path d="M319.119 1201.79L319.119 1201.79L296.871 1179.45C296.871 1179.45 296.871 1179.45 296.871 1179.45L296.871 1179.45L297.048 1179.27C296.984 1179.21 296.984 1179.11 297.048 1179.05L319.119 1201.79ZM319.119 1201.79C319.195 1201.87 319.295 1201.91 319.408 1201.91C319.503 1201.91 319.617 1201.88 319.7 1201.79C319.865 1201.62 319.85 1201.37 319.697 1201.21C319.697 1201.21 319.697 1201.21 319.697 1201.21L297.452 1178.87C297.291 1178.7 297.031 1178.72 296.875 1178.87L319.119 1201.79Z" fill="white" stroke="white" stroke-width="0.5"/>
  <path d="M319.119 1178.98L319.119 1178.98L296.98 1201.21C296.809 1201.37 296.822 1201.64 296.978 1201.79C297.054 1201.87 297.153 1201.91 297.266 1201.91C297.38 1201.91 297.479 1201.87 297.555 1201.79L297.555 1201.79L319.694 1179.56C319.864 1179.4 319.852 1179.14 319.7 1178.98C319.538 1178.81 319.275 1178.82 319.119 1178.98Z" fill="white" stroke="white" stroke-width="0.5"/>
  </g>
  <g opacity="0.15">
  <path d="M206.119 1095.79L206.119 1095.79L183.871 1073.45C183.871 1073.45 183.871 1073.45 183.871 1073.45L183.871 1073.45L184.048 1073.27C183.984 1073.21 183.984 1073.11 184.048 1073.05L206.119 1095.79ZM206.119 1095.79C206.195 1095.87 206.295 1095.91 206.408 1095.91C206.503 1095.91 206.617 1095.88 206.7 1095.79C206.865 1095.62 206.85 1095.37 206.697 1095.21C206.697 1095.21 206.697 1095.21 206.697 1095.21L184.452 1072.87C184.291 1072.7 184.031 1072.72 183.875 1072.87L206.119 1095.79Z" fill="white" stroke="white" stroke-width="0.5"/>
  <path d="M206.119 1072.98L206.119 1072.98L183.98 1095.21C183.809 1095.37 183.822 1095.64 183.978 1095.79C184.054 1095.87 184.153 1095.91 184.266 1095.91C184.38 1095.91 184.479 1095.87 184.555 1095.79L184.555 1095.79L206.694 1073.56C206.864 1073.4 206.852 1073.14 206.7 1072.98C206.538 1072.81 206.275 1072.82 206.119 1072.98Z" fill="white" stroke="white" stroke-width="0.5"/>
  </g>
  <g opacity="0.15">
  <path d="M357.119 1072.79L357.119 1072.79L334.871 1050.45C334.871 1050.45 334.871 1050.45 334.871 1050.45L334.871 1050.45L335.048 1050.27C334.984 1050.21 334.984 1050.11 335.048 1050.05L357.119 1072.79ZM357.119 1072.79C357.195 1072.87 357.295 1072.91 357.408 1072.91C357.503 1072.91 357.617 1072.88 357.7 1072.79C357.865 1072.62 357.85 1072.37 357.697 1072.21C357.697 1072.21 357.697 1072.21 357.697 1072.21L335.452 1049.87C335.291 1049.7 335.031 1049.72 334.875 1049.87L357.119 1072.79Z" fill="white" stroke="white" stroke-width="0.5"/>
  <path d="M357.119 1049.98L357.119 1049.98L334.98 1072.21C334.809 1072.37 334.822 1072.64 334.978 1072.79C335.054 1072.87 335.153 1072.91 335.266 1072.91C335.38 1072.91 335.479 1072.87 335.555 1072.79L335.555 1072.79L357.694 1050.56C357.864 1050.4 357.852 1050.14 357.7 1049.98C357.538 1049.81 357.275 1049.82 357.119 1049.98Z" fill="white" stroke="white" stroke-width="0.5"/>
  </g>
  <g opacity="0.15">
  <path d="M357.119 812.79L357.119 812.79L334.871 790.448C334.871 790.448 334.871 790.448 334.871 790.448L334.871 790.448L335.048 790.271C334.984 790.208 334.984 790.106 335.048 790.048L357.119 812.79ZM357.119 812.79C357.195 812.866 357.295 812.911 357.408 812.911C357.503 812.911 357.617 812.878 357.7 812.787C357.865 812.624 357.85 812.367 357.697 812.213C357.697 812.213 357.697 812.213 357.697 812.213L335.452 789.874C335.291 789.704 335.031 789.715 334.875 789.867L357.119 812.79Z" fill="white" stroke="white" stroke-width="0.5"/>
  <path d="M357.119 789.978L357.119 789.979L334.98 812.211C334.809 812.373 334.822 812.636 334.978 812.791C335.054 812.867 335.153 812.912 335.266 812.912C335.38 812.912 335.479 812.867 335.555 812.791L335.555 812.791L357.694 790.558C357.864 790.398 357.852 790.138 357.7 789.982C357.538 789.81 357.275 789.823 357.119 789.978Z" fill="white" stroke="white" stroke-width="0.5"/>
  </g>
  <g opacity="0.15">
  <path d="M212.119 739.79L212.119 739.79L189.871 717.448C189.871 717.448 189.871 717.448 189.871 717.448L189.871 717.448L190.048 717.271C189.984 717.208 189.984 717.106 190.048 717.048L212.119 739.79ZM212.119 739.79C212.195 739.866 212.295 739.911 212.408 739.911C212.503 739.911 212.617 739.878 212.7 739.787C212.865 739.624 212.85 739.367 212.697 739.213C212.697 739.213 212.697 739.213 212.697 739.213L190.452 716.874C190.291 716.704 190.031 716.715 189.875 716.867L212.119 739.79Z" fill="white" stroke="white" stroke-width="0.5"/>
  <path d="M212.119 716.978L212.119 716.979L189.98 739.211C189.809 739.373 189.822 739.636 189.978 739.791C190.054 739.867 190.153 739.912 190.266 739.912C190.38 739.912 190.479 739.867 190.555 739.791L190.555 739.791L212.694 717.558C212.864 717.398 212.852 717.138 212.7 716.982C212.538 716.81 212.275 716.823 212.119 716.978Z" fill="white" stroke="white" stroke-width="0.5"/>
  </g>
  <g opacity="0.1">
  <path d="M413.119 680.79L413.119 680.79L390.871 658.448C390.871 658.448 390.871 658.448 390.871 658.448L390.871 658.448L391.048 658.271C390.984 658.208 390.984 658.106 391.048 658.048L413.119 680.79ZM413.119 680.79C413.195 680.866 413.295 680.911 413.408 680.911C413.503 680.911 413.617 680.878 413.7 680.787C413.865 680.624 413.85 680.367 413.697 680.213C413.697 680.213 413.697 680.213 413.697 680.213L391.452 657.874C391.291 657.704 391.031 657.715 390.875 657.867L413.119 680.79Z" fill="white" stroke="white" stroke-width="0.5"/>
  <path d="M413.119 657.978L413.119 657.979L390.98 680.211C390.809 680.373 390.822 680.636 390.978 680.791C391.054 680.867 391.153 680.912 391.266 680.912C391.38 680.912 391.479 680.867 391.555 680.791L391.555 680.791L413.694 658.558C413.864 658.398 413.852 658.138 413.7 657.982C413.538 657.81 413.275 657.823 413.119 657.978Z" fill="white" stroke="white" stroke-width="0.5"/>
  </g>
  <g opacity="0.1">
  <path d="M622.119 609.79L622.119 609.79L599.871 587.448C599.871 587.448 599.871 587.448 599.871 587.448L599.871 587.448L600.048 587.271C599.984 587.208 599.984 587.106 600.048 587.048L622.119 609.79ZM622.119 609.79C622.195 609.866 622.295 609.911 622.408 609.911C622.503 609.911 622.617 609.878 622.7 609.787C622.865 609.624 622.85 609.367 622.697 609.213C622.697 609.213 622.697 609.213 622.697 609.213L600.452 586.874C600.291 586.704 600.031 586.715 599.875 586.867L622.119 609.79Z" fill="white" stroke="white" stroke-width="0.5"/>
  <path d="M622.119 586.978L622.119 586.979L599.98 609.211C599.809 609.373 599.822 609.636 599.978 609.791C600.054 609.867 600.153 609.912 600.266 609.912C600.38 609.912 600.479 609.867 600.555 609.791L600.555 609.791L622.694 587.558C622.864 587.398 622.852 587.138 622.7 586.982C622.538 586.81 622.275 586.823 622.119 586.978Z" fill="white" stroke="white" stroke-width="0.5"/>
  </g>
  <g opacity="0.1">
  <path d="M723.119 460.79L723.119 460.79L700.871 438.448C700.871 438.448 700.871 438.448 700.871 438.448L700.871 438.448L701.048 438.271C700.984 438.208 700.984 438.106 701.048 438.048L723.119 460.79ZM723.119 460.79C723.195 460.866 723.295 460.911 723.408 460.911C723.503 460.911 723.617 460.878 723.7 460.787C723.865 460.624 723.85 460.367 723.697 460.213C723.697 460.213 723.697 460.213 723.697 460.213L701.452 437.874C701.291 437.704 701.031 437.715 700.875 437.867L723.119 460.79Z" fill="white" stroke="white" stroke-width="0.5"/>
  <path d="M723.119 437.978L723.119 437.979L700.98 460.211C700.809 460.373 700.822 460.636 700.978 460.791C701.054 460.867 701.153 460.912 701.266 460.912C701.38 460.912 701.479 460.867 701.555 460.791L701.555 460.791L723.694 438.558C723.864 438.398 723.852 438.138 723.7 437.982C723.538 437.81 723.275 437.823 723.119 437.978Z" fill="white" stroke="white" stroke-width="0.5"/>
  </g>
  <g opacity="0.1">
  <path d="M673.119 314.79L673.119 314.79L650.871 292.448C650.871 292.448 650.871 292.448 650.871 292.448L650.871 292.448L651.048 292.271C650.984 292.208 650.984 292.106 651.048 292.048L673.119 314.79ZM673.119 314.79C673.195 314.866 673.295 314.911 673.408 314.911C673.503 314.911 673.617 314.878 673.7 314.787C673.865 314.624 673.85 314.367 673.697 314.213C673.697 314.213 673.697 314.213 673.697 314.213L651.452 291.874C651.291 291.704 651.031 291.715 650.875 291.867L673.119 314.79Z" fill="white" stroke="white" stroke-width="0.5"/>
  <path d="M673.119 291.978L673.119 291.979L650.98 314.211C650.809 314.373 650.822 314.636 650.978 314.791C651.054 314.867 651.153 314.912 651.266 314.912C651.38 314.912 651.479 314.867 651.555 314.791L651.555 314.791L673.694 292.558C673.864 292.398 673.852 292.138 673.7 291.982C673.538 291.81 673.275 291.823 673.119 291.978Z" fill="white" stroke="white" stroke-width="0.5"/>
  </g>
  <g opacity="0.1">
  <path d="M723.119 164.79L723.119 164.79L700.871 142.448C700.871 142.448 700.871 142.448 700.871 142.448L700.871 142.448L701.048 142.271C700.984 142.208 700.984 142.106 701.048 142.048L723.119 164.79ZM723.119 164.79C723.195 164.866 723.295 164.911 723.408 164.911C723.503 164.911 723.617 164.878 723.7 164.787C723.865 164.624 723.85 164.367 723.697 164.213C723.697 164.213 723.697 164.213 723.697 164.213L701.452 141.874C701.291 141.704 701.031 141.715 700.875 141.867L723.119 164.79Z" fill="white" stroke="white" stroke-width="0.5"/>
  <path d="M723.119 141.978L723.119 141.979L700.98 164.211C700.809 164.373 700.822 164.636 700.978 164.791C701.054 164.867 701.153 164.912 701.266 164.912C701.38 164.912 701.479 164.867 701.555 164.791L701.555 164.791L723.694 142.558C723.864 142.398 723.852 142.138 723.7 141.982C723.538 141.81 723.275 141.823 723.119 141.978Z" fill="white" stroke="white" stroke-width="0.5"/>
  </g>
  <g opacity="0.1">
  <path d="M441.119 369.79L441.119 369.79L418.871 347.448C418.871 347.448 418.871 347.448 418.871 347.448L418.871 347.448L419.048 347.271C418.984 347.208 418.984 347.106 419.048 347.048L441.119 369.79ZM441.119 369.79C441.195 369.866 441.295 369.911 441.408 369.911C441.503 369.911 441.617 369.878 441.7 369.787C441.865 369.624 441.85 369.367 441.697 369.213C441.697 369.213 441.697 369.213 441.697 369.213L419.452 346.874C419.291 346.704 419.031 346.715 418.875 346.867L441.119 369.79Z" fill="white" stroke="white" stroke-width="0.5"/>
  <path d="M441.119 346.978L441.119 346.979L418.98 369.211C418.809 369.373 418.822 369.636 418.978 369.791C419.054 369.867 419.153 369.912 419.266 369.912C419.38 369.912 419.479 369.867 419.555 369.791L419.555 369.791L441.694 347.558C441.864 347.398 441.852 347.138 441.7 346.982C441.538 346.81 441.275 346.823 441.119 346.978Z" fill="white" stroke="white" stroke-width="0.5"/>
  </g>
  <g opacity="0.1">
  <path d="M278.119 480.79L278.119 480.79L255.871 458.448C255.871 458.448 255.871 458.448 255.871 458.448L255.871 458.448L256.048 458.271C255.984 458.208 255.984 458.106 256.048 458.048L278.119 480.79ZM278.119 480.79C278.195 480.866 278.295 480.911 278.408 480.911C278.503 480.911 278.617 480.878 278.7 480.787C278.865 480.624 278.85 480.367 278.697 480.213C278.697 480.213 278.697 480.213 278.697 480.213L256.452 457.874C256.291 457.704 256.031 457.715 255.875 457.867L278.119 480.79Z" fill="white" stroke="white" stroke-width="0.5"/>
  <path d="M278.119 457.978L278.119 457.979L255.98 480.211C255.809 480.373 255.822 480.636 255.978 480.791C256.054 480.867 256.153 480.912 256.266 480.912C256.38 480.912 256.479 480.867 256.555 480.791L256.555 480.791L278.694 458.558C278.864 458.398 278.852 458.138 278.7 457.982C278.538 457.81 278.275 457.823 278.119 457.978Z" fill="white" stroke="white" stroke-width="0.5"/>
  </g>
  <g opacity="0.1">
  <path d="M497.119 530.79L497.119 530.79L474.871 508.448C474.871 508.448 474.871 508.448 474.871 508.448L474.871 508.448L475.048 508.271C474.984 508.208 474.984 508.106 475.048 508.048L497.119 530.79ZM497.119 530.79C497.195 530.866 497.295 530.911 497.408 530.911C497.503 530.911 497.617 530.878 497.7 530.787C497.865 530.624 497.85 530.367 497.697 530.213C497.697 530.213 497.697 530.213 497.697 530.213L475.452 507.874C475.291 507.704 475.031 507.715 474.875 507.867L497.119 530.79Z" fill="white" stroke="white" stroke-width="0.5"/>
  <path d="M497.119 507.978L497.119 507.979L474.98 530.211C474.809 530.373 474.822 530.636 474.978 530.791C475.054 530.867 475.153 530.912 475.266 530.912C475.38 530.912 475.479 530.867 475.555 530.791L475.555 530.791L497.694 508.558C497.864 508.398 497.852 508.138 497.7 507.982C497.538 507.81 497.275 507.823 497.119 507.978Z" fill="white" stroke="white" stroke-width="0.5"/>
  </g>
  <g opacity="0.1">
  <path d="M496.119 248.79L496.119 248.79L473.871 226.448C473.871 226.448 473.871 226.448 473.871 226.448L473.871 226.448L474.048 226.271C473.984 226.208 473.984 226.106 474.048 226.048L496.119 248.79ZM496.119 248.79C496.195 248.866 496.295 248.911 496.408 248.911C496.503 248.911 496.617 248.878 496.7 248.787C496.865 248.624 496.85 248.367 496.697 248.213C496.697 248.213 496.697 248.213 496.697 248.213L474.452 225.874C474.291 225.704 474.031 225.715 473.875 225.867L496.119 248.79Z" fill="white" stroke="white" stroke-width="0.5"/>
  <path d="M496.119 225.978L496.119 225.979L473.98 248.211C473.809 248.373 473.822 248.636 473.978 248.791C474.054 248.867 474.153 248.912 474.266 248.912C474.38 248.912 474.479 248.867 474.555 248.791L474.555 248.791L496.694 226.558C496.864 226.398 496.852 226.138 496.7 225.982C496.538 225.81 496.275 225.823 496.119 225.978Z" fill="white" stroke="white" stroke-width="0.5"/>
  </g>
  <g opacity="0.1">
  <path d="M436.119 152.79L436.119 152.79L413.871 130.448C413.871 130.448 413.871 130.448 413.871 130.448L413.871 130.448L414.048 130.271C413.984 130.208 413.984 130.106 414.048 130.048L436.119 152.79ZM436.119 152.79C436.195 152.866 436.295 152.911 436.408 152.911C436.503 152.911 436.617 152.878 436.7 152.787C436.865 152.624 436.85 152.367 436.697 152.213C436.697 152.213 436.697 152.213 436.697 152.213L414.452 129.874C414.291 129.704 414.031 129.715 413.875 129.867L436.119 152.79Z" fill="white" stroke="white" stroke-width="0.5"/>
  <path d="M436.119 129.978L436.119 129.979L413.98 152.211C413.809 152.373 413.822 152.636 413.978 152.791C414.054 152.867 414.153 152.912 414.266 152.912C414.38 152.912 414.479 152.867 414.555 152.791L414.555 152.791L436.694 130.558C436.864 130.398 436.852 130.138 436.7 129.982C436.538 129.81 436.275 129.823 436.119 129.978Z" fill="white" stroke="white" stroke-width="0.5"/>
  </g>
  <g opacity="0.1">
  <path d="M560.119 60.7902L560.119 60.7897L537.871 38.4484C537.871 38.4483 537.871 38.4482 537.871 38.4481L537.871 38.4479L538.048 38.2715C537.984 38.2076 537.984 38.1065 538.048 38.0479L560.119 60.7902ZM560.119 60.7902C560.195 60.8658 560.295 60.9112 560.408 60.9112C560.503 60.9112 560.617 60.8779 560.7 60.7867C560.865 60.6243 560.85 60.3669 560.697 60.2133C560.697 60.2132 560.697 60.213 560.697 60.2128L538.452 37.8743C538.291 37.7042 538.031 37.7153 537.875 37.8672L560.119 60.7902Z" fill="white" stroke="white" stroke-width="0.5"/>
  <path d="M560.119 37.9784L560.119 37.9789L537.98 60.2111C537.809 60.3733 537.822 60.6357 537.978 60.7912C538.054 60.8668 538.153 60.9122 538.266 60.9122C538.38 60.9122 538.479 60.8668 538.555 60.7912L538.555 60.7907L560.694 38.5585C560.864 38.3977 560.852 38.1384 560.7 37.9824C560.538 37.8102 560.275 37.8227 560.119 37.9784Z" fill="white" stroke="white" stroke-width="0.5"/>
  </g>
  <g opacity="0.1">
  <path d="M723.119 23.7902L723.119 23.7897L700.871 1.4484C700.871 1.44829 700.871 1.44819 700.871 1.44809L700.871 1.44789L701.048 1.27149C700.984 1.20761 700.984 1.10647 701.048 1.04791L723.119 23.7902ZM723.119 23.7902C723.195 23.8658 723.295 23.9112 723.408 23.9112C723.503 23.9112 723.617 23.8779 723.7 23.7867C723.865 23.6243 723.85 23.3669 723.697 23.2133C723.697 23.2132 723.697 23.213 723.697 23.2128L701.452 0.874303C701.291 0.70423 701.031 0.715287 700.875 0.867151L723.119 23.7902Z" fill="white" stroke="white" stroke-width="0.5"/>
  <path d="M723.119 0.978417L723.119 0.978929L700.98 23.2111C700.809 23.3733 700.822 23.6357 700.978 23.7912C701.054 23.8668 701.153 23.9122 701.266 23.9122C701.38 23.9122 701.479 23.8668 701.555 23.7912L701.555 23.7907L723.694 1.5585C723.864 1.39769 723.852 1.13838 723.7 0.982398C723.538 0.810193 723.275 0.822706 723.119 0.978417Z" fill="white" stroke="white" stroke-width="0.5"/>
  </g>
  <g opacity="0.1">
  <path d="M531.119 801.79L531.119 801.79L508.871 779.448C508.871 779.448 508.871 779.448 508.871 779.448L508.871 779.448L509.048 779.271C508.984 779.208 508.984 779.106 509.048 779.048L531.119 801.79ZM531.119 801.79C531.195 801.866 531.295 801.911 531.408 801.911C531.503 801.911 531.617 801.878 531.7 801.787C531.865 801.624 531.85 801.367 531.697 801.213C531.697 801.213 531.697 801.213 531.697 801.213L509.452 778.874C509.291 778.704 509.031 778.715 508.875 778.867L531.119 801.79Z" fill="white" stroke="white" stroke-width="0.5"/>
  <path d="M531.119 778.978L531.119 778.979L508.98 801.211C508.809 801.373 508.822 801.636 508.978 801.791C509.054 801.867 509.153 801.912 509.266 801.912C509.38 801.912 509.479 801.867 509.555 801.791L509.555 801.791L531.694 779.558C531.864 779.398 531.852 779.138 531.7 778.982C531.538 778.81 531.275 778.823 531.119 778.978Z" fill="white" stroke="white" stroke-width="0.5"/>
  </g>
  <g opacity="0.15">
  <path d="M689.119 790.79L689.119 790.79L666.871 768.448C666.871 768.448 666.871 768.448 666.871 768.448L666.871 768.448L667.048 768.271C666.984 768.208 666.984 768.106 667.048 768.048L689.119 790.79ZM689.119 790.79C689.195 790.866 689.295 790.911 689.408 790.911C689.503 790.911 689.617 790.878 689.7 790.787C689.865 790.624 689.85 790.367 689.697 790.213C689.697 790.213 689.697 790.213 689.697 790.213L667.452 767.874C667.291 767.704 667.031 767.715 666.875 767.867L689.119 790.79Z" fill="white" stroke="white" stroke-width="0.5"/>
  <path d="M689.119 767.978L689.119 767.979L666.98 790.211C666.809 790.373 666.822 790.636 666.978 790.791C667.054 790.867 667.153 790.912 667.266 790.912C667.38 790.912 667.479 790.867 667.555 790.791L667.555 790.791L689.694 768.558C689.864 768.398 689.852 768.138 689.7 767.982C689.538 767.81 689.275 767.823 689.119 767.978Z" fill="white" stroke="white" stroke-width="0.5"/>
  </g>
  <g opacity="0.1">
  <path d="M782.119 672.79L782.119 672.79L759.871 650.448C759.871 650.448 759.871 650.448 759.871 650.448L759.871 650.448L760.048 650.271C759.984 650.208 759.984 650.106 760.048 650.048L782.119 672.79ZM782.119 672.79C782.195 672.866 782.295 672.911 782.408 672.911C782.503 672.911 782.617 672.878 782.7 672.787C782.865 672.624 782.85 672.367 782.697 672.213C782.697 672.213 782.697 672.213 782.697 672.213L760.452 649.874C760.291 649.704 760.031 649.715 759.875 649.867L782.119 672.79Z" fill="white" stroke="white" stroke-width="0.5"/>
  <path d="M782.119 649.978L782.119 649.979L759.98 672.211C759.809 672.373 759.822 672.636 759.978 672.791C760.054 672.867 760.153 672.912 760.266 672.912C760.38 672.912 760.479 672.867 760.555 672.791L760.555 672.791L782.694 650.558C782.864 650.398 782.852 650.138 782.7 649.982C782.538 649.81 782.275 649.823 782.119 649.978Z" fill="white" stroke="white" stroke-width="0.5"/>
  </g>
</svg>