<svg width="483" height="646" viewBox="0 0 483 646" fill="none" xmlns="http://www.w3.org/2000/svg">
    <g opacity="0.05">
    <path d="M638.782 646C637.566 646 636.502 645.544 635.59 644.634L1.36784 7.73925C-0.455947 5.91825 -0.455947 3.035 1.36784 1.36575C3.19163 -0.45525 6.07929 -0.45525 7.7511 1.36575L641.973 638.26C643.797 640.081 643.797 642.965 641.973 644.634C641.214 645.544 639.998 646 638.782 646Z" fill="#363031"/>
    <path d="M7.59902 646C6.38316 646 5.31929 645.545 4.40739 644.634C2.5836 642.813 2.5836 639.93 4.40739 638.261L635.59 4.40091C637.414 2.57991 640.302 2.57991 641.973 4.40091C643.797 6.22191 643.797 9.10516 641.973 10.7744L10.7907 644.634C9.87876 645.545 8.81488 646 7.59902 646Z" fill="#363031"/>
    </g>
</svg>